<mxfile host="app.diagrams.net" modified="2024-03-29T01:51:26.209Z" agent="Mozilla/5.0 (Windows NT 10.0; Win64; x64) AppleWebKit/537.36 (KHTML, like Gecko) Chrome/123.0.0.0 Safari/537.36" etag="HJgkwWlkv6HI57nBJ4gS" version="24.2.1" type="device">
  <diagram name="PÃ¡gina-1" id="_UWe27caaj-ySI7MDXhi">
    <mxGraphModel dx="3733" dy="1420" grid="1" gridSize="10" guides="1" tooltips="1" connect="1" arrows="1" fold="1" page="1" pageScale="1" pageWidth="827" pageHeight="1169" math="0" shadow="0">
      <root>
        <mxCell id="0" />
        <mxCell id="1" parent="0" />
        <mxCell id="3fwqzPt6mFN9tr5PB0-N-20" value="" style="ellipse;html=1;shape=endState;fillColor=#000000;strokeColor=#ff0000;" vertex="1" parent="1">
          <mxGeometry x="483" y="585" width="30" height="30" as="geometry" />
        </mxCell>
        <mxCell id="3fwqzPt6mFN9tr5PB0-N-21" value="" style="ellipse;html=1;shape=startState;fillColor=#000000;strokeColor=#ff0000;" vertex="1" parent="1">
          <mxGeometry x="303" y="50" width="30" height="30" as="geometry" />
        </mxCell>
        <mxCell id="3fwqzPt6mFN9tr5PB0-N-22" value="" style="edgeStyle=orthogonalEdgeStyle;html=1;verticalAlign=bottom;endArrow=open;endSize=8;strokeColor=#ff0000;rounded=0;" edge="1" parent="1" source="3fwqzPt6mFN9tr5PB0-N-21" target="3fwqzPt6mFN9tr5PB0-N-23">
          <mxGeometry relative="1" as="geometry">
            <mxPoint x="298" y="130" as="targetPoint" />
          </mxGeometry>
        </mxCell>
        <mxCell id="3fwqzPt6mFN9tr5PB0-N-23" value="Login" style="rounded=1;whiteSpace=wrap;html=1;arcSize=40;fontColor=#000000;fillColor=#ffffc0;strokeColor=#000000;" vertex="1" parent="1">
          <mxGeometry x="258" y="110" width="120" height="40" as="geometry" />
        </mxCell>
        <mxCell id="3fwqzPt6mFN9tr5PB0-N-24" value="" style="edgeStyle=orthogonalEdgeStyle;html=1;verticalAlign=bottom;endArrow=open;endSize=8;strokeColor=#000000;rounded=0;" edge="1" parent="1" source="3fwqzPt6mFN9tr5PB0-N-23" target="3fwqzPt6mFN9tr5PB0-N-25">
          <mxGeometry relative="1" as="geometry">
            <mxPoint x="648" y="230" as="targetPoint" />
          </mxGeometry>
        </mxCell>
        <mxCell id="3fwqzPt6mFN9tr5PB0-N-25" value="enter an email" style="rounded=1;whiteSpace=wrap;html=1;arcSize=40;fontColor=#000000;fillColor=#ffffc0;strokeColor=#000000;" vertex="1" parent="1">
          <mxGeometry x="258" y="187.5" width="120" height="40" as="geometry" />
        </mxCell>
        <mxCell id="3fwqzPt6mFN9tr5PB0-N-26" value="" style="edgeStyle=orthogonalEdgeStyle;html=1;verticalAlign=bottom;endArrow=open;endSize=8;strokeColor=#000000;rounded=0;" edge="1" parent="1" source="3fwqzPt6mFN9tr5PB0-N-25" target="3fwqzPt6mFN9tr5PB0-N-27">
          <mxGeometry relative="1" as="geometry">
            <mxPoint x="498" y="280" as="targetPoint" />
          </mxGeometry>
        </mxCell>
        <mxCell id="3fwqzPt6mFN9tr5PB0-N-27" value="is enrolled" style="rhombus;whiteSpace=wrap;html=1;fontColor=#000000;fillColor=#ffffc0;strokeColor=#000000;" vertex="1" parent="1">
          <mxGeometry x="278" y="270" width="80" height="40" as="geometry" />
        </mxCell>
        <mxCell id="3fwqzPt6mFN9tr5PB0-N-28" value="no" style="edgeStyle=orthogonalEdgeStyle;html=1;align=left;verticalAlign=bottom;endArrow=open;endSize=8;strokeColor=#000000;rounded=0;" edge="1" parent="1" source="3fwqzPt6mFN9tr5PB0-N-27" target="3fwqzPt6mFN9tr5PB0-N-30">
          <mxGeometry x="-1" relative="1" as="geometry">
            <mxPoint x="458" y="310" as="targetPoint" />
          </mxGeometry>
        </mxCell>
        <mxCell id="3fwqzPt6mFN9tr5PB0-N-29" value="yes" style="edgeStyle=orthogonalEdgeStyle;html=1;align=left;verticalAlign=top;endArrow=open;endSize=8;strokeColor=#000000;rounded=0;" edge="1" parent="1" source="3fwqzPt6mFN9tr5PB0-N-27" target="3fwqzPt6mFN9tr5PB0-N-32">
          <mxGeometry x="-1" relative="1" as="geometry">
            <mxPoint x="318" y="390" as="targetPoint" />
          </mxGeometry>
        </mxCell>
        <mxCell id="3fwqzPt6mFN9tr5PB0-N-30" value="Create account" style="rounded=1;whiteSpace=wrap;html=1;arcSize=40;fontColor=#000000;fillColor=#ffffc0;strokeColor=#000000;" vertex="1" parent="1">
          <mxGeometry x="438" y="270" width="120" height="40" as="geometry" />
        </mxCell>
        <mxCell id="3fwqzPt6mFN9tr5PB0-N-31" value="" style="edgeStyle=orthogonalEdgeStyle;html=1;verticalAlign=bottom;endArrow=open;endSize=8;strokeColor=#000000;rounded=0;" edge="1" parent="1" source="3fwqzPt6mFN9tr5PB0-N-30" target="3fwqzPt6mFN9tr5PB0-N-20">
          <mxGeometry relative="1" as="geometry">
            <mxPoint x="608" y="440" as="targetPoint" />
          </mxGeometry>
        </mxCell>
        <mxCell id="3fwqzPt6mFN9tr5PB0-N-32" value="Enter a password" style="rounded=1;whiteSpace=wrap;html=1;arcSize=40;fontColor=#000000;fillColor=#ffffc0;strokeColor=#000000;" vertex="1" parent="1">
          <mxGeometry x="258" y="350" width="120" height="40" as="geometry" />
        </mxCell>
        <mxCell id="3fwqzPt6mFN9tr5PB0-N-33" value="" style="edgeStyle=orthogonalEdgeStyle;html=1;verticalAlign=bottom;endArrow=open;endSize=8;strokeColor=#000000;rounded=0;" edge="1" parent="1" source="3fwqzPt6mFN9tr5PB0-N-32" target="3fwqzPt6mFN9tr5PB0-N-34">
          <mxGeometry relative="1" as="geometry">
            <mxPoint x="318" y="430" as="targetPoint" />
          </mxGeometry>
        </mxCell>
        <mxCell id="3fwqzPt6mFN9tr5PB0-N-34" value="The password&lt;div&gt;&lt;span style=&quot;background-color: initial;&quot;&gt;is correct&lt;/span&gt;&lt;/div&gt;" style="rhombus;whiteSpace=wrap;html=1;fontColor=#000000;fillColor=#ffffc0;strokeColor=#000000;" vertex="1" parent="1">
          <mxGeometry x="250" y="429" width="136" height="90" as="geometry" />
        </mxCell>
        <mxCell id="3fwqzPt6mFN9tr5PB0-N-35" value="no" style="edgeStyle=orthogonalEdgeStyle;html=1;align=left;verticalAlign=bottom;endArrow=open;endSize=8;strokeColor=#000000;rounded=0;entryX=1;entryY=0.5;entryDx=0;entryDy=0;exitX=1;exitY=0.5;exitDx=0;exitDy=0;" edge="1" parent="1" source="3fwqzPt6mFN9tr5PB0-N-34" target="3fwqzPt6mFN9tr5PB0-N-32">
          <mxGeometry x="-1" relative="1" as="geometry">
            <mxPoint x="462" y="470" as="targetPoint" />
          </mxGeometry>
        </mxCell>
        <mxCell id="3fwqzPt6mFN9tr5PB0-N-36" value="yes" style="edgeStyle=orthogonalEdgeStyle;html=1;align=left;verticalAlign=top;endArrow=open;endSize=8;strokeColor=#000000;rounded=0;" edge="1" parent="1" source="3fwqzPt6mFN9tr5PB0-N-34" target="3fwqzPt6mFN9tr5PB0-N-37">
          <mxGeometry x="-1" relative="1" as="geometry">
            <mxPoint x="322" y="550" as="targetPoint" />
          </mxGeometry>
        </mxCell>
        <mxCell id="3fwqzPt6mFN9tr5PB0-N-37" value="Log in as an amazon user" style="rounded=1;whiteSpace=wrap;html=1;arcSize=40;fontColor=#000000;fillColor=#ffffc0;strokeColor=#000000;" vertex="1" parent="1">
          <mxGeometry x="258" y="580" width="120" height="40" as="geometry" />
        </mxCell>
        <mxCell id="3fwqzPt6mFN9tr5PB0-N-38" value="" style="edgeStyle=orthogonalEdgeStyle;html=1;verticalAlign=bottom;endArrow=open;endSize=8;strokeColor=#000000;rounded=0;" edge="1" parent="1" source="3fwqzPt6mFN9tr5PB0-N-37" target="3fwqzPt6mFN9tr5PB0-N-20">
          <mxGeometry relative="1" as="geometry">
            <mxPoint x="326" y="680" as="targetPoint" />
          </mxGeometry>
        </mxCell>
      </root>
    </mxGraphModel>
  </diagram>
</mxfile>
